<?xml version="1.0" encoding="UTF-8"?>
<svg width="41px" height="42px" viewBox="0 0 41 42" version="1.1" xmlns="http://www.w3.org/2000/svg" xmlns:xlink="http://www.w3.org/1999/xlink">
    <title>btn</title>
    <g id="页面-1" stroke="none" stroke-width="1" fill="none" fill-rule="evenodd">
        <g id="4招商引资-04入驻企业" transform="translate(-1985.000000, -136.000000)" fill="#FFFFFF" fill-rule="nonzero">
            <g id="btn" transform="translate(1985.000000, 136.437500)">
                <g id="编组-6" transform="translate(0.500000, 0.000000)">
                    <g id="箭头1-向左_fill" transform="translate(20.000000, 20.500000) scale(-1, 1) translate(-20.000000, -20.500000) translate(10.000000, 9.500000)">
                        <path d="M8.119413,10.1812329 C7.96928694,10.331359 7.89440346,10.5282393 7.89471371,10.725 C7.89440346,10.9217607 7.96928694,11.118641 8.119413,11.2687671 L18.0758758,21.2252299 C18.3755055,21.5248595 18.8613145,21.5248595 19.1609441,21.2252299 C19.3104478,21.0757262 19.3853312,20.8798753 19.3857143,20.6839286 L19.3857143,20.6839286 L19.3857143,0.766071429 L19.3857143,0.766071429 C19.3853312,0.570124721 19.3104478,0.374273772 19.1609441,0.224770145 C18.8613145,-0.0748595424 18.3755055,-0.0748595424 18.0758758,0.224770145 L8.119413,10.1812329 Z" id="形状" opacity="0.699999988"></path>
                        <path d="M11.4910714,20.6839286 L11.4910714,20.6839286 L11.4910714,17.1725684 L5.58727015,11.2687671 C5.43714408,11.118641 5.3622606,10.9217607 5.36257182,10.725 C5.3622606,10.5282393 5.43714408,10.331359 5.58727015,10.1812329 L11.4910714,4.27743164 L11.4910714,0.766071429 C11.4910714,0.342984542 11.1480869,0 10.725,0 L10.7238509,0 C10.5274733,0 10.3310717,0.0749553013 10.1812329,0.224794085 L0.224770145,10.1812329 C0.0746440848,10.331359 -0.000239397321,10.5282393 7.08531479e-05,10.725 C-0.000239397321,10.9217607 0.0746440848,11.118641 0.224770145,11.2687671 L10.1812329,21.2252299 C10.4808626,21.5248595 10.9666716,21.5248595 11.2663013,21.2252299 C11.4158049,21.0757262 11.4906645,20.8798753 11.4910714,20.6839286 L11.4910714,20.6839286 Z" id="路径"></path>
                    </g>
                </g>
            </g>
        </g>
    </g>
</svg>